<mxfile host="www.draw.io" modified="2020-01-30T22:45:00.301Z" agent="Mozilla/5.0 (Windows NT 10.0; Win64; x64) AppleWebKit/537.36 (KHTML, like Gecko) Chrome/79.0.3945.130 Safari/537.36" etag="yiEGDUbc1QfuduJk2snQ" version="12.6.2" type="github">
  <diagram id="sI61dgk5eCfldmLuoc_3" name="Page-1">
    <mxGraphModel dx="782" dy="508" grid="1" gridSize="10" guides="1" tooltips="1" connect="1" arrows="1" fold="1" page="1" pageScale="1" pageWidth="850" pageHeight="1100" math="0" shadow="0">
      <root>
        <mxCell id="0"/>
        <mxCell id="1" parent="0"/>
        <mxCell id="WBucVeCNDmj0cJct52nW-1" value="" style="verticalLabelPosition=bottom;verticalAlign=top;html=1;shadow=0;dashed=0;strokeWidth=1;shape=mxgraph.android.phone2;strokeColor=#c0c0c0;" vertex="1" parent="1">
          <mxGeometry x="30" y="40" width="200" height="390" as="geometry"/>
        </mxCell>
        <mxCell id="WBucVeCNDmj0cJct52nW-2" value="" style="verticalLabelPosition=bottom;shadow=0;dashed=0;align=center;html=1;verticalAlign=top;strokeWidth=1;shape=mxgraph.mockup.graphics.bubbleChart;strokeColor=none;strokeColor2=none;strokeColor3=#666666;fillColor2=#008cff;fillColor3=#dddddd;" vertex="1" parent="1">
          <mxGeometry x="40" y="100" width="180" height="260" as="geometry"/>
        </mxCell>
        <mxCell id="WBucVeCNDmj0cJct52nW-3" value="APOD Image" style="whiteSpace=wrap;html=1;shape=mxgraph.basic.rectCallout;dx=41.33;dy=22;boundedLbl=1;" vertex="1" parent="1">
          <mxGeometry x="200" y="60" width="100" height="60" as="geometry"/>
        </mxCell>
        <mxCell id="WBucVeCNDmj0cJct52nW-5" value="" style="edgeStyle=orthogonalEdgeStyle;rounded=0;orthogonalLoop=1;jettySize=auto;html=1;" edge="1" parent="1" source="WBucVeCNDmj0cJct52nW-4" target="WBucVeCNDmj0cJct52nW-2">
          <mxGeometry relative="1" as="geometry"/>
        </mxCell>
        <mxCell id="WBucVeCNDmj0cJct52nW-4" value="" style="verticalLabelPosition=bottom;verticalAlign=top;html=1;shadow=0;dashed=0;strokeWidth=2;shape=mxgraph.android.navigation_bar_3;fillColor=#1A1A1A;strokeColor=#999999;" vertex="1" parent="1">
          <mxGeometry x="37.5" y="360" width="185" height="30" as="geometry"/>
        </mxCell>
        <mxCell id="WBucVeCNDmj0cJct52nW-6" value="" style="verticalLabelPosition=bottom;verticalAlign=top;html=1;shadow=0;dashed=0;strokeWidth=1;shape=mxgraph.android.phone2;strokeColor=#c0c0c0;" vertex="1" parent="1">
          <mxGeometry x="370" y="40" width="200" height="390" as="geometry"/>
        </mxCell>
        <mxCell id="WBucVeCNDmj0cJct52nW-7" value="" style="html=1;shadow=0;dashed=0;align=center;verticalAlign=middle;shape=mxgraph.arrows2.sharpArrow;dy1=0.67;dx1=18;dx2=18;notch=0;" vertex="1" parent="1">
          <mxGeometry x="30" y="450" width="100" height="60" as="geometry"/>
        </mxCell>
        <mxCell id="WBucVeCNDmj0cJct52nW-8" value="" style="html=1;shadow=0;dashed=0;align=center;verticalAlign=middle;shape=mxgraph.arrows2.sharpArrow;dy1=0.67;dx1=18;dx2=18;notch=0;" vertex="1" parent="1">
          <mxGeometry x="210" y="345" width="160" height="35" as="geometry"/>
        </mxCell>
      </root>
    </mxGraphModel>
  </diagram>
</mxfile>
